# xmcd
#
# Track frame offsets:
#	300
#	13716
#	24529
#	36854
#	50106
#	63659
#	77508
#	91099
#	102116
#	116941
#	130441
#	143171
#	156074
#	169349
#	180156
#	191839
#	203046
#	228166
#	246609
#	265436
#	282736
#	302764
#	322439
#
# Disc length: 4537 seconds
#
# Revision: 0
# Processed by: cddbd v1.5.1PL2 Copyright (c) Steve Scherf et al.
# Submitted via: audiograbber 1.83.01
#
DISCID=5b11b517
DTITLE=Etta James - The Definitive Collection
DYEAR=2006
DGENRE=Blues
TTITLE0=The Wallflower (Dance With Me Henry)
TTITLE1=Good Rockin' Daddy
TTITLE2=W-O-M-A-N
TTITLE3=All I Could Do Is Cry
TTITLE4=If I Can't Have You
TTITLE5=My Dearest Darling
TTITLE6=At Last
TTITLE7=Don't Cry Baby
TTITLE8=A Sunday Kind Of Love
TTITLE9=Trust In Me
TTITLE10=Something's Got A Hold On Me
TTITLE11=Stop The Wedding
TTITLE12=Pushover
TTITLE13=Tell Mama
TTITLE14=I'd Rather Go Blind
TTITLE15=Security
TTITLE16=All The Way Down
TTITLE17=Take It To The Limit
TTITLE18=Damm Your Eyes
TTITLE19=Whatever Gets You Through The Night
TTITLE20=The Man I Love
TTITLE21=I've Been Loving You Too Long
TTITLE22=The Sky Is Crying
EXTD=
EXTT0=
EXTT1=
EXTT2=
EXTT3=
EXTT4=
EXTT5=
EXTT6=
EXTT7=
EXTT8=
EXTT9=
EXTT10=
EXTT11=
EXTT12=
EXTT13=
EXTT14=
EXTT15=
EXTT16=
EXTT17=
EXTT18=
EXTT19=
EXTT20=
EXTT21=
EXTT22=
PLAYORDER=
